<svg width="88" height="88" viewBox="0 0 88 88" fill="none" xmlns="http://www.w3.org/2000/svg">
<path d="M15.3259 56.542C15.3259 63.5382 21.0172 69.2295 28.0134 69.2295L22.5759 74.667V76.4795L66.0759 76.4795V74.667L60.6384 69.2295C67.6347 69.2295 73.3259 63.5382 73.3259 56.542L73.3259 18.4795C73.3259 5.79199 60.3484 3.97949 44.3259 3.97949C28.3034 3.97949 15.3259 5.79199 15.3259 18.4795L15.3259 56.542ZM44.3259 61.9795C40.3384 61.9795 37.0759 58.717 37.0759 54.7295C37.0759 50.742 40.3384 47.4795 44.3259 47.4795C48.3134 47.4795 51.5759 50.742 51.5759 54.7295C51.5759 58.717 48.3134 61.9795 44.3259 61.9795ZM66.0759 36.6045L22.5759 36.6045L22.5759 18.4795L66.0759 18.4795L66.0759 36.6045Z" fill="#171A1F"/>
</svg>
