<svg width="89" height="89" viewBox="0 0 89 89" fill="none" xmlns="http://www.w3.org/2000/svg">
<path d="M11.8259 8.18774L19.1959 75.0311C19.6359 78.6977 22.7159 81.5211 26.4926 81.5211L63.1593 81.5211C66.9359 81.5211 70.0159 78.6977 70.4559 75.0311L77.8259 8.18774L11.8259 8.18774ZM44.8259 70.5211C38.7393 70.5211 33.8259 65.6077 33.8259 59.5211C33.8259 52.1877 44.8259 39.7211 44.8259 39.7211C44.8259 39.7211 55.8259 52.1877 55.8259 59.5211C55.8259 65.6077 50.9126 70.5211 44.8259 70.5211ZM68.0359 30.1877L21.6159 30.1877L20.0026 15.5211L69.6126 15.5211L68.0359 30.1877Z" fill="#171A1F"/>
</svg>
