<svg width="77" height="77" viewBox="0 0 77 77" fill="none" xmlns="http://www.w3.org/2000/svg">
<path d="M10.3259 6.68799L16.6909 64.4163C17.0709 67.583 19.7309 70.0213 22.9926 70.0213L54.6593 70.0213C57.9209 70.0213 60.5809 67.583 60.9609 64.4163L67.3259 6.68799L10.3259 6.68799ZM38.8259 60.5213C33.5693 60.5213 29.3259 56.278 29.3259 51.0213C29.3259 44.688 38.8259 33.9213 38.8259 33.9213C38.8259 33.9213 48.3259 44.688 48.3259 51.0213C48.3259 56.278 44.0826 60.5213 38.8259 60.5213ZM58.8709 25.688L18.7809 25.688L17.3876 13.0213L60.2326 13.0213L58.8709 25.688Z" fill="#171A1F"/>
</svg>
