<svg width="92" height="92" viewBox="0 0 92 92" fill="none" xmlns="http://www.w3.org/2000/svg">
<path d="M12.2009 7.93799L19.8222 77.0601C20.2772 80.8517 23.4622 83.7713 27.3676 83.7713L65.2843 83.7713C69.1897 83.7713 72.3747 80.8517 72.8297 77.0601L80.4509 7.93799L12.2009 7.93799ZM46.3259 72.3963C40.0318 72.3963 34.9509 67.3155 34.9509 61.0213C34.9509 53.438 46.3259 40.5463 46.3259 40.5463C46.3259 40.5463 57.7009 53.438 57.7009 61.0213C57.7009 67.3155 52.6201 72.3963 46.3259 72.3963ZM70.3272 30.688L22.3247 30.688L20.6563 15.5213L71.9576 15.5213L70.3272 30.688Z" fill="#171A1F"/>
</svg>
