<svg width="87" height="87" viewBox="0 0 87 87" fill="none" xmlns="http://www.w3.org/2000/svg">
<path d="M40.2426 65.0536V72.5212H33.076L33.076 79.6879H54.576L54.576 72.5212H47.4093V65.0536C58.7398 63.6131 68.3682 55.5219 71.4642 44.2953C72.4102 40.884 72.5822 37.0212 71.9766 32.8072L68.8735 11.0957C68.6226 9.33274 67.1105 8.02124 65.326 8.02124L22.326 8.02124C20.5415 8.02124 19.0293 9.33274 18.7785 11.0957L15.6789 32.8036C15.0733 37.0212 15.2453 40.884 16.1913 44.2917C19.2837 55.5219 28.9121 63.6131 40.2426 65.0536ZM62.2192 15.1879L64.2617 29.5212L23.3866 29.5212L25.4327 15.1879L62.2192 15.1879Z" fill="#171A1F"/>
</svg>
