<svg width="86" height="86" viewBox="0 0 86 86" fill="none" xmlns="http://www.w3.org/2000/svg">
<path d="M39.7842 63.8072V71.188L32.7009 71.188L32.7009 78.2713H53.9509L53.9509 71.188L46.8675 71.188V63.8072C58.0663 62.3834 67.5827 54.3863 70.6427 43.2903C71.5777 39.9186 71.7477 36.1007 71.1492 31.9357L68.0821 10.4767C67.8342 8.73424 66.3396 7.43799 64.5759 7.43799L22.0759 7.43799C20.3121 7.43799 18.8175 8.73424 18.5696 10.4767L15.5061 31.9322C14.9075 36.1007 15.0775 39.9186 16.0125 43.2867C19.069 54.3863 28.5854 62.3834 39.7842 63.8072ZM61.5052 14.5213L63.524 28.688L23.1242 28.688L25.1465 14.5213L61.5052 14.5213Z" fill="#171A1F"/>
</svg>
